<svg width="512" height="512" viewBox="0 0 512 512" fill="none" xmlns="http://www.w3.org/2000/svg">
<path d="M64 480H448C483.3 480 512 451.3 512 416V160C512 124.7 483.3 96 448 96H288C277.9 96 268.4 91.3 262.4 83.2L243.2 57.6C231.1 41.5 212.1 32 192 32H64C28.7 32 0 60.7 0 96V416C0 451.3 28.7 480 64 480Z" fill="#12355B"/>
<g clip-path="url(#clip0_1_6)">
<path d="M221.438 226.438V247.25H290.812V226.438C290.812 207.273 275.29 191.75 256.125 191.75C236.96 191.75 221.438 207.273 221.438 226.438ZM193.688 247.25V226.438C193.688 191.967 221.654 164 256.125 164C290.596 164 318.562 191.967 318.562 226.438V247.25H325.5C340.806 247.25 353.25 259.694 353.25 275V358.25C353.25 373.556 340.806 386 325.5 386H186.75C171.444 386 159 373.556 159 358.25V275C159 259.694 171.444 247.25 186.75 247.25H193.688Z" fill="white"/>
</g>
<defs>
<clipPath id="clip0_1_6">
<rect width="194.25" height="222" fill="white" transform="translate(159 164)"/>
</clipPath>
</defs>
</svg>
